<svg width="256" height="256" viewBox="0 0 256 256" fill="none" xmlns="http://www.w3.org/2000/svg"><g clip-path="url(#clip0_6_2)"><path d="M252.171 158.954C235.069 227.562 165.558 269.268 97.0479 252.165C28.4379 235.063 -13.2681 165.555 3.83486 97.0459C20.9369 28.4379 90.3469 -13.2681 158.957 3.83487C227.467 20.8369 269.274 90.3449 252.171 158.954Z" fill="url(#paint0_linear_6_2)"></path><path d="M188.945 112.05C191.445 95.05 178.545 85.85 160.745 79.75L166.545 56.65L152.545 53.15L146.945 75.65C143.245 74.75 139.445 73.85 135.645 73.05L141.245 50.45L127.245 46.95L121.545 69.95C118.445 69.25 115.445 68.55 112.545 67.85V67.75L93.145 62.95L89.445 77.95C89.445 77.95 99.845 80.35 99.645 80.45C105.345 81.85 106.345 85.65 106.145 88.65L99.545 114.95C99.945 115.05 100.445 115.15 101.045 115.45C100.545 115.35 100.045 115.25 99.545 115.05L90.345 151.85C89.645 153.55 87.845 156.15 83.945 155.15C84.045 155.35 73.745 152.65 73.745 152.65L66.745 168.75L85.045 173.35C88.445 174.25 91.745 175.05 95.045 175.95L89.245 199.25L103.245 202.75L109.045 179.65C112.845 180.65 116.645 181.65 120.245 182.55L114.545 205.55L128.545 209.05L134.345 185.75C158.345 190.25 176.345 188.45 183.845 166.75C189.945 149.35 183.545 139.25 170.945 132.65C180.245 130.55 187.145 124.45 188.945 112.05ZM156.845 157.05C152.545 174.45 123.145 165.05 113.645 162.65L121.345 131.75C130.845 134.15 161.445 138.85 156.845 157.05ZM161.245 111.75C157.245 127.65 132.845 119.55 124.945 117.55L131.945 89.55C139.845 91.55 165.345 95.25 161.245 111.75Z" fill="white"></path></g><defs><linearGradient id="paint0_linear_6_2" x1="12793.1" y1="-6.14399" x2="12793.1" y2="25597.4" gradientUnits="userSpaceOnUse"><stop stop-color="#F9AA4B"></stop><stop offset="1" stop-color="#F7931A"></stop></linearGradient><clipPath id="clip0_6_2"><rect width="256" height="256" fill="white"></rect></clipPath></defs></svg>