<svg width="28" height="28" viewBox="0 0 28 28" fill="none" xmlns="http://www.w3.org/2000/svg"><path d="M27.636 13.6631L26.4732 12.943C26.466 12.8304 26.4555 12.7181 26.4417 12.6061L27.44 11.676C27.4891 11.6289 27.5254 11.5702 27.5458 11.5054C27.5662 11.4405 27.57 11.3716 27.5567 11.3049C27.5435 11.2382 27.5136 11.176 27.47 11.1238C27.4264 11.0717 27.3703 11.0314 27.307 11.0066L26.0304 10.5315C25.9999 10.4199 25.967 10.3091 25.9315 10.199L26.7234 9.0965C26.7642 9.0415 26.79 8.97691 26.7984 8.90898C26.8069 8.84106 26.7976 8.77211 26.7715 8.70881C26.7455 8.64552 26.7035 8.59003 26.6497 8.54773C26.5959 8.50543 26.5321 8.47775 26.4644 8.46738L25.1195 8.24775C25.0697 8.14713 25.0145 8.04738 24.9612 7.94675L25.5255 6.70775C25.5543 6.64594 25.5665 6.57773 25.561 6.50978C25.5555 6.44183 25.5324 6.37648 25.494 6.32013C25.4558 6.26386 25.404 6.2181 25.3435 6.18707C25.2829 6.15603 25.2156 6.14071 25.1475 6.1425L23.7799 6.19238C23.7111 6.10192 23.6396 6.0135 23.5655 5.92725L23.8805 4.60075C23.896 4.53418 23.8942 4.46478 23.8754 4.39909C23.8566 4.33339 23.8214 4.27356 23.773 4.22524C23.7247 4.17692 23.6649 4.1417 23.5992 4.1229C23.5335 4.10409 23.4641 4.10232 23.3975 4.11775L22.071 4.43275C21.9852 4.35823 21.8968 4.28673 21.8059 4.21838L21.8558 2.85075C21.8586 2.78264 21.8439 2.71494 21.813 2.65414C21.7822 2.59335 21.7362 2.5415 21.6796 2.50356C21.6229 2.46563 21.5575 2.44287 21.4895 2.43747C21.4215 2.43208 21.3533 2.44423 21.2914 2.47275L20.0524 3.03713C19.9518 2.98375 19.852 2.92863 19.747 2.87875L19.5274 1.53388C19.5161 1.46674 19.4879 1.40358 19.4455 1.35036C19.403 1.29715 19.3477 1.25562 19.2848 1.2297C19.2218 1.20379 19.1533 1.19433 19.0857 1.20224C19.0181 1.21014 18.9536 1.23514 18.8983 1.27488L17.7958 2.06675C17.6864 2.03088 17.5762 1.99938 17.4677 1.96788L16.9882 0.696504C16.9645 0.632899 16.925 0.576349 16.8735 0.532158C16.822 0.487966 16.7601 0.457581 16.6937 0.44385C16.6272 0.43012 16.5583 0.433495 16.4935 0.453658C16.4287 0.473821 16.3701 0.510113 16.3232 0.559129L15.393 1.56275C15.2793 1.54768 15.1653 1.53571 15.0509 1.52688L14.336 0.368379C14.3006 0.310071 14.2508 0.26187 14.1913 0.22842C14.1318 0.19497 14.0648 0.177399 13.9965 0.177399C13.9283 0.177399 13.8612 0.19497 13.8018 0.22842C13.7423 0.26187 13.6925 0.310071 13.657 0.368379L12.9369 1.52688C12.8223 1.53475 12.7094 1.54875 12.6 1.56275L11.6699 0.559129C11.6228 0.509539 11.5639 0.47276 11.4987 0.45226C11.4334 0.431761 11.3641 0.428217 11.2971 0.441963C11.2301 0.45571 11.1677 0.486293 11.1158 0.530827C11.064 0.575362 11.0243 0.632381 11.0005 0.696504L10.5254 1.96788C10.4125 1.99938 10.3075 2.03525 10.1929 2.06675L9.09042 1.27488C9.03514 1.23514 8.97065 1.21014 8.90303 1.20224C8.83541 1.19433 8.76689 1.20379 8.70394 1.2297C8.64099 1.25562 8.58568 1.29715 8.54322 1.35036C8.50077 1.40358 8.47257 1.46674 8.46129 1.53388L8.24167 2.87875C8.14104 2.92863 8.04217 2.98375 7.94154 3.03713L6.70167 2.47275C6.63974 2.44423 6.57154 2.43208 6.50357 2.43747C6.43561 2.44287 6.37017 2.46563 6.31353 2.50356C6.25688 2.5415 6.21093 2.59335 6.18007 2.65414C6.14921 2.71494 6.13448 2.78264 6.13729 2.85075L6.18279 4.21838C6.09617 4.2875 6.00867 4.35925 5.92292 4.43275L4.59292 4.11775C4.52652 4.10253 4.45734 4.10449 4.39191 4.12343C4.32648 4.14238 4.26696 4.17769 4.21897 4.22603C4.17098 4.27437 4.1361 4.33415 4.11763 4.39971C4.09916 4.46528 4.09771 4.53447 4.11342 4.60075L4.42404 5.92725C4.35054 6.01388 4.28317 6.09963 4.20967 6.19238L2.84729 6.1425C2.77925 6.13994 2.71169 6.15483 2.65104 6.18576C2.59038 6.21668 2.53865 6.26262 2.50076 6.31918C2.46288 6.37575 2.44009 6.44108 2.43458 6.50894C2.42908 6.5768 2.44102 6.64494 2.46929 6.70688L3.03542 7.94588L2.87092 8.24688L1.52692 8.4665C1.45996 8.4781 1.39702 8.50645 1.34398 8.54893C1.29094 8.59141 1.24951 8.64663 1.22357 8.70944C1.19762 8.77224 1.188 8.8406 1.19561 8.90813C1.20321 8.97566 1.22778 9.04016 1.26704 9.09563L2.06504 10.1981C2.02894 10.3082 1.99539 10.419 1.96442 10.5306L0.68779 11.0058C0.624062 11.0301 0.567559 11.0702 0.523587 11.1223C0.479614 11.1745 0.449616 11.2369 0.436407 11.3039C0.423198 11.3708 0.427212 11.44 0.448073 11.5049C0.468934 11.5698 0.505957 11.6284 0.555665 11.6751L1.55317 12.6053C1.53939 12.7172 1.52888 12.8296 1.52167 12.9421L0.359665 13.6623C0.301296 13.6971 0.25297 13.7465 0.219412 13.8056C0.185854 13.8648 0.168213 13.9316 0.168213 13.9996C0.168213 14.0676 0.185854 14.1344 0.219412 14.1935C0.25297 14.2526 0.301296 14.302 0.359665 14.3369L1.52167 15.057C1.52954 15.1716 1.53917 15.2854 1.55317 15.3939L0.555665 16.3284C0.505611 16.3745 0.468246 16.4327 0.447155 16.4974C0.426063 16.5621 0.421952 16.6312 0.435215 16.6979C0.448479 16.7647 0.478673 16.8269 0.522901 16.8787C0.567129 16.9304 0.623907 16.9699 0.68779 16.9934L1.96442 17.4729C1.99592 17.5814 2.02742 17.6908 2.06504 17.801L1.26704 18.9035C1.22726 18.9591 1.20234 19.0239 1.19468 19.0918C1.18701 19.1597 1.19684 19.2285 1.22323 19.2915C1.24963 19.3546 1.29171 19.4098 1.34547 19.452C1.39924 19.4942 1.4629 19.522 1.53042 19.5326L2.87529 19.7523C2.92517 19.8529 2.98029 19.9526 3.03542 20.0533L2.46929 21.2923C2.44102 21.3542 2.42908 21.4223 2.43458 21.4902C2.44009 21.5581 2.46288 21.6234 2.50076 21.6799C2.53865 21.7365 2.59038 21.7824 2.65104 21.8134C2.71169 21.8443 2.77925 21.8592 2.84729 21.8566L4.20967 21.8111C4.28317 21.8986 4.35054 21.9853 4.42929 22.071L4.11429 23.4019C4.09898 23.4679 4.10075 23.5368 4.11944 23.602C4.13813 23.6671 4.17312 23.7265 4.22111 23.7744C4.26909 23.8223 4.32849 23.8571 4.3937 23.8757C4.45891 23.8943 4.52777 23.8959 4.59379 23.8805L5.92379 23.5699C6.01042 23.6434 6.09792 23.7108 6.18892 23.7843L6.13904 25.1466C6.13573 25.2149 6.15013 25.2829 6.18085 25.344C6.21158 25.405 6.25757 25.4571 6.31437 25.4952C6.37117 25.5332 6.43685 25.5559 6.50502 25.5611C6.57319 25.5662 6.64153 25.5537 6.70342 25.5246L7.94329 24.9603C8.04392 25.0136 8.14279 25.0688 8.24342 25.1239L8.46742 26.4688C8.47848 26.5354 8.50632 26.5982 8.54833 26.6511C8.59033 26.704 8.64512 26.7454 8.70752 26.7713C8.76993 26.7972 8.8379 26.8068 8.90504 26.7992C8.97218 26.7916 9.03627 26.767 9.09129 26.7278L10.1982 25.9306C10.3075 25.9665 10.4178 25.998 10.5263 26.0295L11.0058 27.3061C11.0288 27.3704 11.068 27.4277 11.1197 27.4723C11.1714 27.5169 11.2337 27.5474 11.3007 27.5608C11.3676 27.5742 11.4369 27.57 11.5017 27.5487C11.5666 27.5274 11.6248 27.4896 11.6708 27.4391L12.6009 26.4408C12.7138 26.4548 12.824 26.4688 12.9378 26.4766L13.6579 27.6386C13.6938 27.6963 13.7438 27.7439 13.8032 27.7769C13.8626 27.8099 13.9295 27.8272 13.9974 27.8272C14.0654 27.8272 14.1322 27.8099 14.1916 27.7769C14.251 27.7439 14.301 27.6963 14.3369 27.6386L15.057 26.4766C15.1717 26.4688 15.281 26.4548 15.3939 26.4408L16.324 27.4391C16.3705 27.4887 16.4287 27.5256 16.4934 27.5463C16.5581 27.5671 16.627 27.571 16.6935 27.5577C16.7601 27.5444 16.8222 27.5143 16.8739 27.4702C16.9256 27.4262 16.9653 27.3697 16.989 27.3061L17.4685 26.0295C17.577 25.998 17.6864 25.9665 17.7967 25.9306L18.8992 26.7278C18.9543 26.768 19.0188 26.7934 19.0866 26.8016C19.1544 26.8097 19.2231 26.8004 19.2862 26.7744C19.3494 26.7484 19.4048 26.7067 19.4471 26.6531C19.4895 26.5996 19.5175 26.5361 19.5283 26.4688L19.7479 25.1239C19.8529 25.0688 19.9535 25.0145 20.0533 24.9603L21.2923 25.5246C21.3542 25.5526 21.4223 25.5644 21.4901 25.5588C21.5578 25.5531 21.6231 25.5303 21.6795 25.4925C21.736 25.4547 21.782 25.403 21.8129 25.3425C21.8439 25.282 21.859 25.2146 21.8567 25.1466L21.8068 23.7843C21.8987 23.7108 21.9853 23.6434 22.0667 23.5699L23.3975 23.8805C23.4637 23.8956 23.5326 23.8938 23.5978 23.8752C23.663 23.8566 23.7225 23.8218 23.7707 23.7741C23.8189 23.7263 23.8542 23.6671 23.8734 23.6021C23.8926 23.537 23.8951 23.4681 23.8805 23.4019L23.5655 22.071C23.639 21.9844 23.7117 21.8986 23.7799 21.8111L25.1475 21.8566C25.2157 21.8594 25.2834 21.8447 25.3441 21.8138C25.4049 21.783 25.4568 21.737 25.4947 21.6804C25.5327 21.6237 25.5554 21.5583 25.5608 21.4903C25.5662 21.4224 25.5541 21.3542 25.5255 21.2923L24.9612 20.0533C25.0145 19.9526 25.0697 19.8529 25.1195 19.7523L26.4644 19.5326C26.5316 19.5213 26.5947 19.4932 26.6479 19.4507C26.7011 19.4082 26.7427 19.3529 26.7686 19.29C26.7945 19.227 26.804 19.1585 26.7961 19.0909C26.7882 19.0233 26.7632 18.9588 26.7234 18.9035L25.9315 17.801L26.0304 17.4729L27.3018 16.9934C27.3659 16.9703 27.423 16.9311 27.4676 16.8796C27.5123 16.8282 27.543 16.7661 27.5568 16.6994C27.5705 16.6326 27.567 16.5635 27.5464 16.4985C27.5258 16.4336 27.4889 16.375 27.4392 16.3284L26.4408 15.3939C26.4504 15.2854 26.4644 15.1708 26.4723 15.057L27.6352 14.3369C27.6933 14.3019 27.7414 14.2524 27.7748 14.1933C27.8082 14.1342 27.8258 14.0675 27.8258 13.9996C27.8258 13.9317 27.8082 13.8649 27.7748 13.8058C27.7414 13.7467 27.6933 13.6973 27.6352 13.6623L27.636 13.6631ZM19.8652 23.2881C18.7942 23.0606 19.1363 21.4515 20.2117 21.679C20.425 21.725 20.6114 21.8538 20.7298 22.0372C20.8482 22.2205 20.8889 22.4434 20.843 22.6568C20.797 22.8702 20.6682 23.0566 20.4848 23.175C20.3014 23.2934 20.0785 23.3341 19.8652 23.2881ZM19.4732 20.622C19.3768 20.6012 19.2774 20.5998 19.1805 20.6176C19.0836 20.6355 18.9912 20.6724 18.9086 20.7262C18.8261 20.78 18.755 20.8495 18.6994 20.9309C18.6439 21.0123 18.605 21.1039 18.585 21.2004L18.1694 23.1184C16.8603 23.7143 15.4384 24.0222 14 24.0214C12.5299 24.0225 11.0773 23.7021 9.74404 23.0825L9.32842 21.1601C9.3085 21.0637 9.26958 20.9721 9.21392 20.8909C9.15826 20.8096 9.08697 20.7402 9.00422 20.6868C8.92147 20.6334 8.82891 20.597 8.73194 20.5797C8.63497 20.5624 8.53553 20.5646 8.43942 20.5861L6.74454 20.9458C6.42699 20.6222 6.1331 20.2763 5.86517 19.9106H14.1278C14.2197 19.9106 14.2827 19.8975 14.2827 19.81V16.8901C14.2827 16.8026 14.2197 16.7895 14.1278 16.7895H11.7084V14.9345H14.3238C14.5609 14.9345 15.6004 15.0019 15.9277 16.3284C16.0327 16.7344 16.261 18.06 16.415 18.4844C16.5699 18.963 17.2034 19.9098 17.878 19.9098H21.994C22.0442 19.9098 22.0943 19.9054 22.1437 19.8966C21.8601 20.2853 21.548 20.6524 21.21 20.9948L19.4732 20.622ZM8.04742 23.2514C7.83373 23.2954 7.6113 23.2537 7.42812 23.1351C7.24494 23.0166 7.1157 22.8308 7.06829 22.6179C7.04497 22.5122 7.04292 22.4029 7.06223 22.2964C7.08155 22.1899 7.12186 22.0882 7.18081 21.9975C7.23976 21.9067 7.31618 21.8285 7.40562 21.7675C7.49506 21.7065 7.59574 21.664 7.70179 21.6423C7.91517 21.5964 8.13802 21.6372 8.32132 21.7557C8.50461 21.8742 8.63333 22.0606 8.67917 22.274C8.725 22.4874 8.68419 22.7102 8.56571 22.8935C8.44724 23.0768 8.2608 23.2055 8.04742 23.2514V23.2514ZM4.91317 10.5411C4.96094 10.6406 4.98834 10.7486 4.99373 10.8588C4.99913 10.969 4.98241 11.0791 4.94458 11.1828C4.90674 11.2864 4.84855 11.3814 4.77343 11.4622C4.69831 11.543 4.60778 11.608 4.50717 11.6533C4.40618 11.6974 4.29742 11.7209 4.18724 11.7225C4.07705 11.7242 3.96764 11.7038 3.86541 11.6627C3.76318 11.6215 3.67017 11.5604 3.59181 11.483C3.51345 11.4055 3.45132 11.3131 3.40904 11.2114C3.00742 10.2279 4.45204 9.58475 4.91317 10.542V10.5411ZM3.95154 12.824L5.71904 12.04C6.09792 11.872 6.26592 11.4301 6.09792 11.0521L5.73304 10.227H7.16892V16.6845H4.27879C3.92194 15.4308 3.81053 14.12 3.95067 12.824H3.95154ZM11.7119 12.2001V10.2953H15.1209C15.2985 10.2953 16.3643 10.5009 16.3643 11.2989C16.3643 11.9639 15.5444 12.201 14.8742 12.201L11.7119 12.2001ZM24.108 13.9134C24.108 14.1645 24.0984 14.4139 24.0809 14.6598H23.0414C22.9364 14.6598 22.8953 14.7289 22.8953 14.8339V15.3073C22.8953 16.4281 22.2662 16.6696 21.7097 16.7344C21.1812 16.7939 20.5975 16.5148 20.5258 16.1919C20.2152 14.4419 19.6963 14.0683 18.8764 13.4208C19.8923 12.7733 20.9493 11.8256 20.9493 10.5499C20.9493 9.1735 20.0052 8.30725 19.3638 7.88375C18.4608 7.28613 17.4633 7.16888 17.1938 7.16888H6.47067C7.95181 5.51111 9.93823 4.38796 12.1223 3.97338L13.3893 5.30425C13.4572 5.37513 13.5385 5.43192 13.6284 5.47139C13.7183 5.51085 13.8151 5.5322 13.9133 5.53424C14.0114 5.53627 14.109 5.51893 14.2005 5.48323C14.2919 5.44752 14.3755 5.39413 14.4463 5.32613L15.8594 3.9725C17.3017 4.24204 18.668 4.82241 19.8634 5.67328C21.0588 6.52414 22.0546 7.6251 22.7815 8.89963L21.8112 11.0871C21.732 11.2692 21.7277 11.4752 21.7993 11.6604C21.8708 11.8456 22.0125 11.9952 22.1935 12.0768L24.0582 12.9054C24.0897 13.2388 24.1037 13.5713 24.1037 13.9134H24.108ZM13.3902 2.84813C14.182 2.09213 15.3178 3.28125 14.5242 4.03813C13.7358 4.7215 12.6735 3.605 13.3902 2.84813ZM23.0012 10.5814C23.0889 10.3826 23.2521 10.2267 23.4547 10.1481C23.6574 10.0695 23.8829 10.0746 24.0818 10.1623C24.7564 10.4589 24.7328 11.4196 24.0494 11.6848C23.3608 11.9481 22.701 11.2516 23.002 10.5814H23.0012Z" fill="black"></path></svg>