<svg width="28" height="22" viewBox="0 0 28 22" fill="none" xmlns="http://www.w3.org/2000/svg"><g clip-path="url(#clip0_159_2)"><path d="M4.54814 16.7493C4.71711 16.5803 4.94945 16.4818 5.19586 16.4818H27.5424C27.9507 16.4818 28.1549 16.9746 27.8662 17.2633L23.4518 21.6776C23.2829 21.8466 23.0505 21.9452 22.8041 21.9452H0.457616C0.0492683 21.9452 -0.154906 21.4523 0.133754 21.1637L4.54814 16.7493Z" fill="url(#paint0_linear_159_2)"></path><path d="M4.54814 0.267538C4.72415 0.0985667 4.95649 0 5.19586 0H27.5424C27.9507 0 28.1549 0.492834 27.8662 0.781494L23.4518 5.19588C23.2829 5.36485 23.0505 5.46341 22.8041 5.46341H0.457616C0.0492683 5.46341 -0.154906 4.97058 0.133754 4.68192L4.54814 0.267538Z" fill="url(#paint1_linear_159_2)"></path><path d="M23.4518 8.45562C23.2829 8.28665 23.0505 8.18808 22.8041 8.18808H0.457616C0.0492683 8.18808 -0.154906 8.68091 0.133754 8.96957L4.54814 13.384C4.71711 13.5529 4.94945 13.6515 5.19586 13.6515H27.5424C27.9507 13.6515 28.1549 13.1587 27.8662 12.87L23.4518 8.45562Z" fill="url(#paint2_linear_159_2)"></path></g><defs><linearGradient id="paint0_linear_159_2" x1="25.4076" y1="-2.63704" x2="9.94207" y2="26.9857" gradientUnits="userSpaceOnUse"><stop stop-color="#00FFA3"></stop><stop offset="1" stop-color="#DC1FFF"></stop></linearGradient><linearGradient id="paint1_linear_159_2" x1="18.6452" y1="-6.16756" x2="3.17969" y2="23.4552" gradientUnits="userSpaceOnUse"><stop stop-color="#00FFA3"></stop><stop offset="1" stop-color="#DC1FFF"></stop></linearGradient><linearGradient id="paint2_linear_159_2" x1="22.0049" y1="-4.41353" x2="6.53936" y2="25.2092" gradientUnits="userSpaceOnUse"><stop stop-color="#00FFA3"></stop><stop offset="1" stop-color="#DC1FFF"></stop></linearGradient><clipPath id="clip0_159_2"><rect width="28" height="21.9452" fill="white"></rect></clipPath></defs></svg>