<svg width="30" height="28" viewBox="0 0 35 32" fill="none" xmlns="http://www.w3.org/2000/svg"><g clip-path="url(#clip0_9_22)"><path d="M11.3823 5.83787C11.3823 5.83787 10.1173 6.56827 10.1173 8.02667V15.316C10.1173 15.316 10.1173 16.7767 8.8524 16.0464C7.58747 15.3161 7.58747 13.8577 7.58747 13.8577V6.5684C7.58747 6.47733 7.592 6.38867 7.60107 6.30213C7.73987 5.01907 8.85013 4.37747 8.85013 4.37747L6.32267 2.91893C6.32267 2.91893 6.3204 2.91893 6.31813 2.9212C6.24307 2.9644 5.05773 3.6948 5.05773 5.1076V12.3969C5.05773 12.3969 5.05773 13.8576 3.79267 13.1273C2.52773 12.3971 2.52773 10.9387 2.52773 10.9387V3.64933C2.52773 2.19093 3.79267 1.46067 3.79267 1.46067L1.26493 0C1.26493 0 0 0.730267 0 2.18867V9.478C0 9.478 0 13.8576 3.79253 16.0463C4.9552 16.7175 5.76053 16.7697 6.32027 16.5217C6.87987 17.4159 7.68533 18.2941 8.84787 18.9652C12.6404 21.1539 12.6404 16.7765 12.6404 16.7765V9.4872C12.6404 8.02653 13.9055 7.29853 13.9055 7.29853C13.5165 6.80947 13.1708 6.4772 12.8681 6.302C12.6101 6.15267 12.1148 5.998 11.3823 5.838V5.83787Z" fill="#808285"></path><path d="M25.2855 18.2417C25.2855 13.9191 29.078 16.0531 29.078 16.0531L34.1333 18.972V21.8911L29.078 18.972C29.078 18.972 29.062 18.9628 29.0339 18.9485L29.0172 18.9404C28.7647 18.8169 27.8132 18.4359 27.8132 19.7047C27.8132 21.1629 29.078 21.8933 29.078 21.8933L31.6057 23.3516C31.6057 23.3516 34.1333 24.8123 34.1333 29.1896C34.1333 33.5669 30.3408 31.3781 30.3408 31.3781L25.2855 28.4592V25.5403L30.3431 28.4592C30.3431 28.4592 31.608 29.1896 31.608 27.7289C31.608 26.2705 30.3431 25.5403 30.3431 25.5403L29.078 24.81C29.0025 24.7648 25.2855 22.5212 25.2855 18.2417V18.2417ZM21.4929 11.676C22.2488 11.7628 22.7612 11.884 23.0303 12.0395C23.3229 12.2085 23.6529 12.5743 24.0205 13.1365C24.0205 13.1365 22.7556 13.8669 22.7556 15.3252L22.7555 22.6261C22.7521 22.8715 22.6417 26.9263 18.9629 24.8033C15.2843 22.6803 15.1737 18.4959 15.1705 18.2467L15.1704 18.2351L17.698 19.6957V19.7005C17.6993 19.7932 17.7407 21.1787 18.9629 21.8843C20.1892 22.5923 20.2268 21.2413 20.2279 21.158V13.8647C20.2279 12.4063 21.4929 11.676 21.4929 11.676V11.676ZM15.1749 12.4221L17.7025 13.8805V16.7995L15.1749 15.3412V12.422V12.4221Z" fill="#BCBEC0"></path><path d="M29.078 5.83786C27.9132 5.16453 26.8689 4.83679 25.9793 4.70493C25.7473 4.19759 25.1785 3.60146 24.0228 2.94173C20.2301 0.775858 16.4399 2.91906 16.4399 2.91906L11.3823 5.83773L13.91 7.29613L18.9652 4.37719C18.9652 4.37719 20.2301 3.64679 21.4929 4.37719C22.7579 5.10746 21.4929 5.83773 21.4929 5.83773L16.4376 8.75666L18.9652 10.2151L24.0251 7.29373C24.1001 7.25066 25.3241 6.58853 26.5481 7.29613C27.8131 8.02639 26.5481 8.75439 26.5481 8.75439L21.4929 11.6735L24.0205 13.134L30.3408 9.48466C30.3408 9.48466 32.8684 8.02639 29.0781 5.83773L29.078 5.83786Z" fill="#F16822"></path></g><defs><clipPath id="clip0_9_22"><rect width="34.1333" height="32"></rect></clipPath></defs></svg>